<svg xmlns="http://www.w3.org/2000/svg" viewBox="0 0 96 96">
  <defs>
    <radialGradient id="ygGlow" cx="0.32" cy="0.28" r="0.75">
      <stop offset="0%" stop-color="#ffe586" />
      <stop offset="100%" stop-color="#f0a325" />
    </radialGradient>
    <linearGradient id="ygCalendarTop" x1="0" x2="0" y1="0" y2="1">
      <stop offset="0%" stop-color="#fff9ee" />
      <stop offset="100%" stop-color="#ffe0a7" />
    </linearGradient>
    <linearGradient id="ygCalendarBody" x1="0" x2="0" y1="0" y2="1">
      <stop offset="0%" stop-color="#fec349" />
      <stop offset="100%" stop-color="#f0981b" />
    </linearGradient>
  </defs>
  <circle cx="48" cy="48" r="41" fill="url(#ygGlow)" />
  <circle cx="48" cy="48" r="40" fill="none" stroke="rgba(255, 255, 255, 0.25)" stroke-width="1.8" />
  <g>
    <rect x="28" y="13" width="8" height="16" rx="4" fill="#fff7e1" stroke="#c4c7d3" stroke-width="2" />
    <rect x="60" y="13" width="8" height="16" rx="4" fill="#fff7e1" stroke="#c4c7d3" stroke-width="2" />
    <rect x="20" y="20" width="56" height="52" rx="16" fill="url(#ygCalendarTop)" stroke="rgba(27, 33, 45, 0.1)" stroke-width="2" />
    <rect x="20" y="34" width="56" height="38" rx="14" fill="url(#ygCalendarBody)" stroke="#aa6e1f" stroke-width="2.2" />
    <rect x="26" y="39" width="44" height="28" rx="9" fill="rgba(255, 255, 255, 0.12)" stroke="rgba(94, 52, 13, 0.35)" stroke-width="1.5" />
  </g>
  <g fill="none" stroke="#5b3a15" stroke-width="3" stroke-linecap="round" stroke-linejoin="round">
    <rect x="27" y="37" width="26" height="12" rx="6" />
    <rect x="50" y="39" width="12" height="8" rx="3" />
    <line x1="62" y1="43" x2="68" y2="43" />
    <rect x="35" y="48" width="12" height="16" rx="3" />
    <line x1="35" y1="54" x2="27.5" y2="54" />
    <line x1="43" y1="54" x2="43" y2="60" />
  </g>
  <circle cx="40.5" cy="54" r="1.8" fill="#5b3a15" />
</svg>
